<mxfile host="app.diagrams.net" agent="Mozilla/5.0 (Windows NT 10.0; Win64; x64) AppleWebKit/537.36 (KHTML, like Gecko) Chrome/137.0.0.0 Safari/537.36" version="28.0.3">
  <diagram name="Page-1" id="2YBvvXClWsGukQMizWep">
    <mxGraphModel dx="1748" dy="992" grid="0" gridSize="10" guides="1" tooltips="1" connect="1" arrows="1" fold="1" page="0" pageScale="1" pageWidth="850" pageHeight="1100" math="0" shadow="0">
      <root>
        <mxCell id="0" />
        <mxCell id="1" parent="0" />
        <mxCell id="PKf5rBHhws8iXInOLp4H-3" value="" style="shape=umlLifeline;perimeter=lifelinePerimeter;whiteSpace=wrap;html=1;container=1;dropTarget=0;collapsible=0;recursiveResize=0;outlineConnect=0;portConstraint=eastwest;newEdgeStyle={&quot;curved&quot;:0,&quot;rounded&quot;:0};participant=umlActor;" vertex="1" parent="1">
          <mxGeometry x="-179" y="7" width="20" height="520" as="geometry" />
        </mxCell>
        <mxCell id="PKf5rBHhws8iXInOLp4H-4" value="Employé" style="text;html=1;align=center;verticalAlign=middle;resizable=0;points=[];autosize=1;strokeColor=none;fillColor=none;" vertex="1" parent="1">
          <mxGeometry x="-193" y="-24" width="65" height="26" as="geometry" />
        </mxCell>
        <mxCell id="PKf5rBHhws8iXInOLp4H-5" value="&amp;nbsp;Ul JS" style="shape=umlLifeline;perimeter=lifelinePerimeter;whiteSpace=wrap;html=1;container=1;dropTarget=0;collapsible=0;recursiveResize=0;outlineConnect=0;portConstraint=eastwest;newEdgeStyle={&quot;curved&quot;:0,&quot;rounded&quot;:0};" vertex="1" parent="1">
          <mxGeometry x="-4" y="7" width="100" height="518" as="geometry" />
        </mxCell>
        <mxCell id="PKf5rBHhws8iXInOLp4H-6" value="" style="html=1;points=[[0,0,0,0,5],[0,1,0,0,-5],[1,0,0,0,5],[1,1,0,0,-5]];perimeter=orthogonalPerimeter;outlineConnect=0;targetShapes=umlLifeline;portConstraint=eastwest;newEdgeStyle={&quot;curved&quot;:0,&quot;rounded&quot;:0};" vertex="1" parent="PKf5rBHhws8iXInOLp4H-5">
          <mxGeometry x="45" y="75" width="10" height="442" as="geometry" />
        </mxCell>
        <mxCell id="PKf5rBHhws8iXInOLp4H-7" value="" style="endArrow=open;endFill=1;endSize=12;html=1;rounded=0;" edge="1" parent="1" target="PKf5rBHhws8iXInOLp4H-5">
          <mxGeometry width="160" relative="1" as="geometry">
            <mxPoint x="-169" y="97" as="sourcePoint" />
            <mxPoint x="-9" y="97" as="targetPoint" />
          </mxGeometry>
        </mxCell>
        <mxCell id="PKf5rBHhws8iXInOLp4H-8" value="&lt;span style=&quot;color: rgba(0, 0, 0, 0); font-family: monospace; font-size: 0px; text-align: start; background-color: rgb(236, 236, 236);&quot;&gt;%3CmxGraphModel%3E%3Croot%3E%3CmxCell%20id%3D%220%22%2F%3E%3CmxCell%20id%3D%221%22%20parent%3D%220%22%2F%3E%3CmxCell%20id%3D%222%22%20value%3D%22%26amp%3Bnbsp%3BUl%20JS%22%20style%3D%22shape%3DumlLifeline%3Bperimeter%3DlifelinePerimeter%3BwhiteSpace%3Dwrap%3Bhtml%3D1%3Bcontainer%3D1%3BdropTarget%3D0%3Bcollapsible%3D0%3BrecursiveResize%3D0%3BoutlineConnect%3D0%3BportConstraint%3Deastwest%3BnewEdgeStyle%3D%7B%26quot%3Bcurved%26quot%3B%3A0%2C%26quot%3Brounded%26quot%3B%3A0%7D%3B%22%20vertex%3D%221%22%20parent%3D%221%22%3E%3CmxGeometry%20x%3D%22250%22%20y%3D%22-61%22%20width%3D%22100%22%20height%3D%22969%22%20as%3D%22geometry%22%2F%3E%3C%2FmxCell%3E%3CmxCell%20id%3D%223%22%20value%3D%22%22%20style%3D%22html%3D1%3Bpoints%3D%5B%5B0%2C0%2C0%2C0%2C5%5D%2C%5B0%2C1%2C0%2C0%2C-5%5D%2C%5B1%2C0%2C0%2C0%2C5%5D%2C%5B1%2C1%2C0%2C0%2C-5%5D%5D%3Bperimeter%3DorthogonalPerimeter%3BoutlineConnect%3D0%3BtargetShapes%3DumlLifeline%3BportConstraint%3Deastwest%3BnewEdgeStyle%3D%7B%26quot%3Bcurved%26quot%3B%3A0%2C%26quot%3Brounded%26quot%3B%3A0%7D%3B%22%20vertex%3D%221%22%20parent%3D%222%22%3E%3CmxGeometry%20x%3D%2245%22%20y%3D%22112%22%20width%3D%2210%22%20height%3D%22829%22%20as%3D%22geometry%22%2F%3E%3C%2FmxCell%3E%3C%2Froot%3E%3C%2FmxGraphModel%3E&lt;/span&gt;" style="edgeLabel;html=1;align=center;verticalAlign=middle;resizable=0;points=[];" vertex="1" connectable="0" parent="PKf5rBHhws8iXInOLp4H-7">
          <mxGeometry x="0.4471" y="-1" relative="1" as="geometry">
            <mxPoint x="-23" y="-13" as="offset" />
          </mxGeometry>
        </mxCell>
        <mxCell id="PKf5rBHhws8iXInOLp4H-9" value="Saisie identifiant et mot de passe&amp;nbsp;" style="text;html=1;align=center;verticalAlign=middle;resizable=0;points=[];autosize=1;strokeColor=none;fillColor=none;" vertex="1" parent="1">
          <mxGeometry x="-161" y="75" width="197" height="26" as="geometry" />
        </mxCell>
        <mxCell id="PKf5rBHhws8iXInOLp4H-10" style="edgeStyle=orthogonalEdgeStyle;rounded=0;orthogonalLoop=1;jettySize=auto;html=1;curved=0;" edge="1" parent="1">
          <mxGeometry relative="1" as="geometry">
            <Array as="points">
              <mxPoint x="156" y="116" />
              <mxPoint x="156" y="116" />
            </Array>
            <mxPoint x="51" y="116" as="sourcePoint" />
            <mxPoint x="261" y="116" as="targetPoint" />
          </mxGeometry>
        </mxCell>
        <mxCell id="PKf5rBHhws8iXInOLp4H-11" value="&lt;span style=&quot;color: rgb(40, 37, 61); font-family: &amp;quot;Recursive Variable&amp;quot;, arial, sans-serif;&quot;&gt;&lt;font style=&quot;font-size: 12px;&quot;&gt;Envoie les données d&#39;identification&lt;/font&gt;&lt;/span&gt;" style="edgeLabel;html=1;align=center;verticalAlign=middle;resizable=0;points=[];" vertex="1" connectable="0" parent="PKf5rBHhws8iXInOLp4H-10">
          <mxGeometry x="0.621" y="-4" relative="1" as="geometry">
            <mxPoint x="-65" y="-14" as="offset" />
          </mxGeometry>
        </mxCell>
        <mxCell id="PKf5rBHhws8iXInOLp4H-12" value="&lt;span style=&quot;color: rgba(0, 0, 0, 0); font-family: monospace; font-size: 0px; text-align: start;&quot;&gt;%3CmxGraphModel%3E%3Croot%3E%3CmxCell%20id%3D%220%22%2F%3E%3CmxCell%20id%3D%221%22%20parent%3D%220%22%2F%3E%3CmxCell%20id%3D%222%22%20value%3D%22Contr%C3%B4leur%22%20style%3D%22shape%3DumlLifeline%3Bperimeter%3DlifelinePerimeter%3BwhiteSpace%3Dwrap%3Bhtml%3D1%3Bcontainer%3D1%3BdropTarget%3D0%3Bcollapsible%3D0%3BrecursiveResize%3D0%3BoutlineConnect%3D0%3BportConstraint%3Deastwest%3BnewEdgeStyle%3D%7B%26quot%3Bcurved%26quot%3B%3A0%2C%26quot%3Brounded%26quot%3B%3A0%7D%3B%22%20vertex%3D%221%22%20parent%3D%221%22%3E%3CmxGeometry%20x%3D%22470%22%20y%3D%22-55%22%20width%3D%22100%22%20height%3D%22973%22%20as%3D%22geometry%22%2F%3E%3C%2FmxCell%3E%3CmxCell%20id%3D%223%22%20value%3D%22%22%20style%3D%22html%3D1%3Bpoints%3D%5B%5B0%2C0%2C0%2C0%2C5%5D%2C%5B0%2C1%2C0%2C0%2C-5%5D%2C%5B1%2C0%2C0%2C0%2C5%5D%2C%5B1%2C1%2C0%2C0%2C-5%5D%5D%3Bperimeter%3DorthogonalPerimeter%3BoutlineConnect%3D0%3BtargetShapes%3DumlLifeline%3BportConstraint%3Deastwest%3BnewEdgeStyle%3D%7B%26quot%3Bcurved%26quot%3B%3A0%2C%26quot%3Brounded%26quot%3B%3A0%7D%3B%22%20vertex%3D%221%22%20parent%3D%222%22%3E%3CmxGeometry%20x%3D%2245%22%20y%3D%22100%22%20width%3D%2210%22%20height%3D%22835%22%20as%3D%22geometry%22%2F%3E%3C%2FmxCell%3E%3C%2Froot%3E%3C%2FmxGraphModel%3E&lt;/span&gt;" style="text;html=1;align=center;verticalAlign=middle;resizable=0;points=[];autosize=1;strokeColor=none;fillColor=none;" vertex="1" parent="1">
          <mxGeometry x="298" y="17" width="18" height="26" as="geometry" />
        </mxCell>
        <mxCell id="PKf5rBHhws8iXInOLp4H-13" value="Contrôleur" style="shape=umlLifeline;perimeter=lifelinePerimeter;whiteSpace=wrap;html=1;container=1;dropTarget=0;collapsible=0;recursiveResize=0;outlineConnect=0;portConstraint=eastwest;newEdgeStyle={&quot;curved&quot;:0,&quot;rounded&quot;:0};" vertex="1" parent="1">
          <mxGeometry x="216" y="9" width="100" height="522" as="geometry" />
        </mxCell>
        <mxCell id="PKf5rBHhws8iXInOLp4H-14" value="" style="html=1;points=[[0,0,0,0,5],[0,1,0,0,-5],[1,0,0,0,5],[1,1,0,0,-5]];perimeter=orthogonalPerimeter;outlineConnect=0;targetShapes=umlLifeline;portConstraint=eastwest;newEdgeStyle={&quot;curved&quot;:0,&quot;rounded&quot;:0};" vertex="1" parent="PKf5rBHhws8iXInOLp4H-13">
          <mxGeometry x="45" y="100" width="10" height="413" as="geometry" />
        </mxCell>
        <mxCell id="PKf5rBHhws8iXInOLp4H-24" style="edgeStyle=orthogonalEdgeStyle;rounded=0;orthogonalLoop=1;jettySize=auto;html=1;curved=0;" edge="1" parent="PKf5rBHhws8iXInOLp4H-13" source="PKf5rBHhws8iXInOLp4H-14" target="PKf5rBHhws8iXInOLp4H-14">
          <mxGeometry relative="1" as="geometry">
            <Array as="points">
              <mxPoint x="75" y="217" />
              <mxPoint x="75" y="243" />
            </Array>
          </mxGeometry>
        </mxCell>
        <mxCell id="PKf5rBHhws8iXInOLp4H-15" value="BD" style="shape=umlLifeline;perimeter=lifelinePerimeter;whiteSpace=wrap;html=1;container=1;dropTarget=0;collapsible=0;recursiveResize=0;outlineConnect=0;portConstraint=eastwest;newEdgeStyle={&quot;curved&quot;:0,&quot;rounded&quot;:0};" vertex="1" parent="1">
          <mxGeometry x="437" y="7" width="100" height="519" as="geometry" />
        </mxCell>
        <mxCell id="PKf5rBHhws8iXInOLp4H-16" value="" style="html=1;points=[[0,0,0,0,5],[0,1,0,0,-5],[1,0,0,0,5],[1,1,0,0,-5]];perimeter=orthogonalPerimeter;outlineConnect=0;targetShapes=umlLifeline;portConstraint=eastwest;newEdgeStyle={&quot;curved&quot;:0,&quot;rounded&quot;:0};" vertex="1" parent="PKf5rBHhws8iXInOLp4H-15">
          <mxGeometry x="45" y="98" width="10" height="419" as="geometry" />
        </mxCell>
        <mxCell id="PKf5rBHhws8iXInOLp4H-19" style="edgeStyle=orthogonalEdgeStyle;rounded=0;orthogonalLoop=1;jettySize=auto;html=1;curved=0;" edge="1" parent="1">
          <mxGeometry relative="1" as="geometry">
            <Array as="points">
              <mxPoint x="376" y="145" />
              <mxPoint x="376" y="145" />
            </Array>
            <mxPoint x="271" y="145" as="sourcePoint" />
            <mxPoint x="481" y="145" as="targetPoint" />
          </mxGeometry>
        </mxCell>
        <mxCell id="PKf5rBHhws8iXInOLp4H-20" value="&lt;span style=&quot;color: rgb(40, 37, 61); font-family: &amp;quot;Recursive Variable&amp;quot;, arial, sans-serif;&quot;&gt;&lt;font style=&quot;font-size: 12px;&quot;&gt;Vérifie les données&amp;nbsp;&lt;/font&gt;&lt;/span&gt;" style="edgeLabel;html=1;align=center;verticalAlign=middle;resizable=0;points=[];" vertex="1" connectable="0" parent="PKf5rBHhws8iXInOLp4H-19">
          <mxGeometry x="0.621" y="-4" relative="1" as="geometry">
            <mxPoint x="-65" y="-14" as="offset" />
          </mxGeometry>
        </mxCell>
        <mxCell id="PKf5rBHhws8iXInOLp4H-21" value="alt" style="shape=umlFrame;whiteSpace=wrap;html=1;pointerEvents=0;fillColor=#ffe6cc;strokeColor=#d79b00;" vertex="1" parent="1">
          <mxGeometry x="-206" y="153" width="755" height="370" as="geometry" />
        </mxCell>
        <mxCell id="PKf5rBHhws8iXInOLp4H-22" value="[Identifiants valides]" style="text;html=1;align=center;verticalAlign=middle;resizable=0;points=[];autosize=1;strokeColor=none;fillColor=none;" vertex="1" parent="1">
          <mxGeometry x="53" y="148" width="123" height="26" as="geometry" />
        </mxCell>
        <mxCell id="PKf5rBHhws8iXInOLp4H-23" value="&lt;font style=&quot;font-size: 12px;&quot;&gt;Utilisateur trouvé&lt;span style=&quot;white-space: pre;&quot;&gt;&#x9;&lt;/span&gt;&lt;/font&gt;" style="html=1;verticalAlign=bottom;endArrow=open;dashed=1;endSize=8;curved=0;rounded=0;" edge="1" parent="1">
          <mxGeometry x="0.1333" y="-9" relative="1" as="geometry">
            <mxPoint x="480" y="185" as="sourcePoint" />
            <mxPoint x="270" y="185" as="targetPoint" />
            <mxPoint as="offset" />
          </mxGeometry>
        </mxCell>
        <mxCell id="PKf5rBHhws8iXInOLp4H-25" value="Génère un token" style="text;html=1;align=center;verticalAlign=middle;resizable=0;points=[];autosize=1;strokeColor=none;fillColor=none;" vertex="1" parent="1">
          <mxGeometry x="233" y="200" width="107" height="26" as="geometry" />
        </mxCell>
        <mxCell id="PKf5rBHhws8iXInOLp4H-26" value="&lt;span style=&quot;font-size: 12px;&quot;&gt;Répond avec token&amp;nbsp;&lt;/span&gt;" style="html=1;verticalAlign=bottom;endArrow=open;dashed=1;endSize=8;curved=0;rounded=0;" edge="1" parent="1">
          <mxGeometry x="0.1333" y="-9" relative="1" as="geometry">
            <mxPoint x="261" y="269" as="sourcePoint" />
            <mxPoint x="51" y="269" as="targetPoint" />
            <mxPoint as="offset" />
          </mxGeometry>
        </mxCell>
        <mxCell id="PKf5rBHhws8iXInOLp4H-27" value="&lt;span style=&quot;font-size: 12px;&quot;&gt;Affiche espace personnel&lt;/span&gt;" style="html=1;verticalAlign=bottom;endArrow=open;dashed=1;endSize=8;curved=0;rounded=0;" edge="1" parent="1">
          <mxGeometry x="0.1333" y="-9" relative="1" as="geometry">
            <mxPoint x="42.5" y="384" as="sourcePoint" />
            <mxPoint x="-167.5" y="384" as="targetPoint" />
            <mxPoint as="offset" />
          </mxGeometry>
        </mxCell>
        <mxCell id="PKf5rBHhws8iXInOLp4H-28" value="" style="endArrow=none;dashed=1;html=1;dashPattern=1 3;strokeWidth=2;rounded=0;exitX=0.001;exitY=0.356;exitDx=0;exitDy=0;fillColor=#ffe6cc;strokeColor=#d79b00;exitPerimeter=0;" edge="1" parent="1">
          <mxGeometry width="50" height="50" relative="1" as="geometry">
            <mxPoint x="-205" y="405.74" as="sourcePoint" />
            <mxPoint x="549" y="408.87" as="targetPoint" />
            <Array as="points">
              <mxPoint x="403.59000000000015" y="409.0039999999999" />
            </Array>
          </mxGeometry>
        </mxCell>
        <mxCell id="PKf5rBHhws8iXInOLp4H-29" value="&lt;span style=&quot;color: rgb(0, 0, 0); font-family: Helvetica; font-size: 12px; font-style: normal; font-variant-ligatures: normal; font-variant-caps: normal; font-weight: 400; letter-spacing: normal; orphans: 2; text-align: center; text-indent: 0px; text-transform: none; widows: 2; word-spacing: 0px; -webkit-text-stroke-width: 0px; white-space: nowrap; background-color: rgb(236, 236, 236); text-decoration-thickness: initial; text-decoration-style: initial; text-decoration-color: initial; float: none; display: inline !important;&quot;&gt;[Identifiants invalides]&lt;/span&gt;" style="text;whiteSpace=wrap;html=1;" vertex="1" parent="1">
          <mxGeometry x="102.9999755859375" y="403.99998779296874" width="133" height="36" as="geometry" />
        </mxCell>
        <mxCell id="PKf5rBHhws8iXInOLp4H-30" value="&lt;font style=&quot;font-size: 12px;&quot;&gt;Utilisateur introuvable&lt;/font&gt;" style="html=1;verticalAlign=bottom;endArrow=open;dashed=1;endSize=8;curved=0;rounded=0;" edge="1" parent="1">
          <mxGeometry x="0.1333" y="-9" relative="1" as="geometry">
            <mxPoint x="482" y="451" as="sourcePoint" />
            <mxPoint x="272" y="451" as="targetPoint" />
            <mxPoint as="offset" />
          </mxGeometry>
        </mxCell>
        <mxCell id="PKf5rBHhws8iXInOLp4H-31" value="&lt;font style=&quot;font-size: 12px;&quot;&gt;Message d&#39;erreur&lt;/font&gt;" style="html=1;verticalAlign=bottom;endArrow=open;dashed=1;endSize=8;curved=0;rounded=0;" edge="1" parent="1">
          <mxGeometry x="0.1333" y="-9" relative="1" as="geometry">
            <mxPoint x="261" y="484" as="sourcePoint" />
            <mxPoint x="51" y="484" as="targetPoint" />
            <mxPoint as="offset" />
          </mxGeometry>
        </mxCell>
        <mxCell id="PKf5rBHhws8iXInOLp4H-32" value="&lt;span style=&quot;font-size: 12px;&quot;&gt;Affiche message d&#39;erreur&lt;/span&gt;" style="html=1;verticalAlign=bottom;endArrow=open;dashed=1;endSize=8;curved=0;rounded=0;" edge="1" parent="1">
          <mxGeometry x="0.1333" y="-9" relative="1" as="geometry">
            <mxPoint x="40" y="511" as="sourcePoint" />
            <mxPoint x="-170" y="511" as="targetPoint" />
            <mxPoint as="offset" />
          </mxGeometry>
        </mxCell>
        <mxCell id="PKf5rBHhws8iXInOLp4H-33" style="edgeStyle=orthogonalEdgeStyle;rounded=0;orthogonalLoop=1;jettySize=auto;html=1;curved=0;" edge="1" parent="1">
          <mxGeometry relative="1" as="geometry">
            <Array as="points">
              <mxPoint x="158" y="299" />
              <mxPoint x="158" y="299" />
            </Array>
            <mxPoint x="53" y="299" as="sourcePoint" />
            <mxPoint x="263" y="299" as="targetPoint" />
          </mxGeometry>
        </mxCell>
        <mxCell id="PKf5rBHhws8iXInOLp4H-34" value="&lt;span style=&quot;color: rgb(40, 37, 61); font-family: &amp;quot;Recursive Variable&amp;quot;, arial, sans-serif;&quot;&gt;&lt;font style=&quot;font-size: 12px;&quot;&gt;Demande salaire et&amp;nbsp; historique prêts&lt;/font&gt;&lt;/span&gt;" style="edgeLabel;html=1;align=center;verticalAlign=middle;resizable=0;points=[];" vertex="1" connectable="0" parent="PKf5rBHhws8iXInOLp4H-33">
          <mxGeometry x="0.621" y="-4" relative="1" as="geometry">
            <mxPoint x="-65" y="-14" as="offset" />
          </mxGeometry>
        </mxCell>
        <mxCell id="PKf5rBHhws8iXInOLp4H-35" style="edgeStyle=orthogonalEdgeStyle;rounded=0;orthogonalLoop=1;jettySize=auto;html=1;curved=0;" edge="1" parent="1">
          <mxGeometry relative="1" as="geometry">
            <Array as="points">
              <mxPoint x="375" y="319" />
              <mxPoint x="375" y="319" />
            </Array>
            <mxPoint x="270" y="319" as="sourcePoint" />
            <mxPoint x="480" y="319" as="targetPoint" />
          </mxGeometry>
        </mxCell>
        <mxCell id="PKf5rBHhws8iXInOLp4H-36" value="&lt;span style=&quot;color: rgb(40, 37, 61); font-family: &amp;quot;Recursive Variable&amp;quot;, arial, sans-serif;&quot;&gt;&lt;font style=&quot;font-size: 12px;&quot;&gt;Demande salaire et prêts&lt;/font&gt;&lt;/span&gt;" style="edgeLabel;html=1;align=center;verticalAlign=middle;resizable=0;points=[];" vertex="1" connectable="0" parent="PKf5rBHhws8iXInOLp4H-35">
          <mxGeometry x="0.621" y="-4" relative="1" as="geometry">
            <mxPoint x="-65" y="-14" as="offset" />
          </mxGeometry>
        </mxCell>
        <mxCell id="PKf5rBHhws8iXInOLp4H-37" value="&lt;span style=&quot;font-size: 12px;&quot;&gt;Données récupérées&lt;/span&gt;" style="html=1;verticalAlign=bottom;endArrow=open;dashed=1;endSize=8;curved=0;rounded=0;" edge="1" parent="1">
          <mxGeometry x="0.1429" y="-4" relative="1" as="geometry">
            <mxPoint x="482" y="352" as="sourcePoint" />
            <mxPoint x="272" y="352" as="targetPoint" />
            <mxPoint as="offset" />
          </mxGeometry>
        </mxCell>
        <mxCell id="PKf5rBHhws8iXInOLp4H-39" value="&lt;span style=&quot;font-size: 12px;&quot;&gt;Envoie infos personnelles&lt;/span&gt;" style="html=1;verticalAlign=bottom;endArrow=open;dashed=1;endSize=8;curved=0;rounded=0;" edge="1" parent="1">
          <mxGeometry x="-0.0476" y="-5" relative="1" as="geometry">
            <mxPoint x="259" y="369" as="sourcePoint" />
            <mxPoint x="49" y="369" as="targetPoint" />
            <mxPoint as="offset" />
          </mxGeometry>
        </mxCell>
      </root>
    </mxGraphModel>
  </diagram>
</mxfile>
